# xmcd
#
# Track frame offsets: 
#        150
#        16627
#        34652
#        53127
#        75215
#        90822
#        103057
#        127457
#        143660
#        161542
#        177617
#        202752
#        227662
#        244322
#        269570
#        290220
#
# Disc length: 4130 seconds
#
# Revision: 2
# Processed by: cddbd v1.5.2PL0 Copyright (c) Steve Scherf et al.
# Submitted via: ExactAudioCopy v1.3
#
DISCID=d6102010
DTITLE=Various Artist - Blues Revue sampler, Dec-Jan 2007
DYEAR=2007
DGENRE=Blues
TTITLE0=Ike Turner - Gimme back my wig
TTITLE1=Big Frank and The Healers - I love you, baby
TTITLE2=Mitch Kashmar - Wake up and worry
TTITLE3=Hans Theessink Band - Believe the devil took her hand
TTITLE4=The Mystics - Satisfy you
TTITLE5=Michael Powers - Lay the hooch
TTITLE6=Aynsley Lister - Angel o' mine
TTITLE7=The Cash Box Kings - Life is tough
TTITLE8=Robert Cray Band - Bad influence
TTITLE9=The Bluesers - It's a pity
TTITLE10=Will Porter featuring Billy Preston, Leo Nocentelli, and The 
TTITLE10=Louisiana Philharmonic Strings - Like a circle (Around the Su
TTITLE10=n)
TTITLE11=Marla  BB - Destiny meets devil at the crossroads
TTITLE12=Rusty Wright Blues - I ain't from Mississippi
TTITLE13=Jony James Blues Band - What about tomorrow
TTITLE14=Hard Bargain - Birthday blues
TTITLE15=Jimi Bott featuring Suburban Slim - Your eyes (Give you away)
EXTD=
EXTT0=
EXTT1=
EXTT2=
EXTT3=
EXTT4=
EXTT5=
EXTT6=
EXTT7=
EXTT8=
EXTT9=
EXTT10=
EXTT11=
EXTT12=
EXTT13=
EXTT14=
EXTT15=
PLAYORDER=
